<svg width="16" height="8" viewBox="0 0 16 8" fill="none" xmlns="http://www.w3.org/2000/svg">
<path d="M7.98745 7.9973C7.72089 7.99782 7.46255 7.90487 7.2573 7.73458L0.412139 2.02324C0.179156 1.82936 0.0326414 1.55074 0.00482755 1.2487C-0.0229863 0.946653 0.0701785 0.645916 0.263827 0.412646C0.457475 0.179376 0.735743 0.0326817 1.03742 0.00483352C1.33909 -0.0230146 1.63946 0.0702645 1.87244 0.264151L7.98745 5.38151L14.1025 0.446915C14.2192 0.352031 14.3534 0.281175 14.4976 0.238417C14.6417 0.19566 14.7929 0.181846 14.9423 0.197768C15.0918 0.213691 15.2367 0.259035 15.3686 0.331196C15.5005 0.403358 15.6169 0.500913 15.7111 0.618254C15.8156 0.735704 15.8947 0.873491 15.9435 1.02298C15.9923 1.17248 16.0098 1.33045 15.9948 1.48702C15.9798 1.64358 15.9327 1.79535 15.8564 1.93283C15.7801 2.07031 15.6762 2.19053 15.5514 2.28596L8.70619 7.80311C8.49504 7.94649 8.24198 8.01486 7.98745 7.9973Z" fill="black"/>
</svg>
