<svg width="34" height="34" viewBox="0 0 34 34" fill="none" xmlns="http://www.w3.org/2000/svg">
<path d="M27.8611 0C29.4892 0 31.0507 0.646774 32.202 1.79804C33.3532 2.9493 34 4.51075 34 6.13889V27.8611C34 29.4892 33.3532 31.0507 32.202 32.202C31.0507 33.3532 29.4892 34 27.8611 34H6.13889C4.51075 34 2.9493 33.3532 1.79804 32.202C0.646774 31.0507 0 29.4892 0 27.8611V6.13889C0 4.51075 0.646774 2.9493 1.79804 1.79804C2.9493 0.646774 4.51075 0 6.13889 0H27.8611ZM31.1667 10.3889H2.83333V27.8611C2.83333 29.6858 4.31422 31.1667 6.13889 31.1667H27.8611C28.7378 31.1667 29.5786 30.8184 30.1985 30.1985C30.8184 29.5786 31.1667 28.7378 31.1667 27.8611V10.3889ZM8.97222 21.7222C9.59843 21.7222 10.199 21.971 10.6418 22.4138C11.0846 22.8566 11.3333 23.4571 11.3333 24.0833C11.3333 24.7095 11.0846 25.3101 10.6418 25.7529C10.199 26.1957 9.59843 26.4444 8.97222 26.4444C8.34602 26.4444 7.74546 26.1957 7.30266 25.7529C6.85987 25.3101 6.61111 24.7095 6.61111 24.0833C6.61111 23.4571 6.85987 22.8566 7.30266 22.4138C7.74546 21.971 8.34602 21.7222 8.97222 21.7222ZM17 21.7222C17.6262 21.7222 18.2268 21.971 18.6696 22.4138C19.1124 22.8566 19.3611 23.4571 19.3611 24.0833C19.3611 24.7095 19.1124 25.3101 18.6696 25.7529C18.2268 26.1957 17.6262 26.4444 17 26.4444C16.3738 26.4444 15.7732 26.1957 15.3304 25.7529C14.8876 25.3101 14.6389 24.7095 14.6389 24.0833C14.6389 23.4571 14.8876 22.8566 15.3304 22.4138C15.7732 21.971 16.3738 21.7222 17 21.7222ZM8.97222 14.1667C9.59843 14.1667 10.199 14.4154 10.6418 14.8582C11.0846 15.301 11.3333 15.9016 11.3333 16.5278C11.3333 17.154 11.0846 17.7545 10.6418 18.1973C10.199 18.6401 9.59843 18.8889 8.97222 18.8889C8.34602 18.8889 7.74546 18.6401 7.30266 18.1973C6.85987 17.7545 6.61111 17.154 6.61111 16.5278C6.61111 15.9016 6.85987 15.301 7.30266 14.8582C7.74546 14.4154 8.34602 14.1667 8.97222 14.1667ZM17 14.1667C17.6262 14.1667 18.2268 14.4154 18.6696 14.8582C19.1124 15.301 19.3611 15.9016 19.3611 16.5278C19.3611 17.154 19.1124 17.7545 18.6696 18.1973C18.2268 18.6401 17.6262 18.8889 17 18.8889C16.3738 18.8889 15.7732 18.6401 15.3304 18.1973C14.8876 17.7545 14.6389 17.154 14.6389 16.5278C14.6389 15.9016 14.8876 15.301 15.3304 14.8582C15.7732 14.4154 16.3738 14.1667 17 14.1667ZM25.0278 14.1667C25.654 14.1667 26.2545 14.4154 26.6973 14.8582C27.1401 15.301 27.3889 15.9016 27.3889 16.5278C27.3889 17.154 27.1401 17.7545 26.6973 18.1973C26.2545 18.6401 25.654 18.8889 25.0278 18.8889C24.4016 18.8889 23.801 18.6401 23.3582 18.1973C22.9154 17.7545 22.6667 17.154 22.6667 16.5278C22.6667 15.9016 22.9154 15.301 23.3582 14.8582C23.801 14.4154 24.4016 14.1667 25.0278 14.1667ZM27.8611 2.83333H6.13889C5.2622 2.83333 4.42142 3.1816 3.80151 3.80151C3.1816 4.42142 2.83333 5.2622 2.83333 6.13889V7.55556H31.1667V6.13889C31.1667 5.2622 30.8184 4.42142 30.1985 3.80151C29.5786 3.1816 28.7378 2.83333 27.8611 2.83333Z" fill="white"/>
</svg>
