<svg width="58" height="58" viewBox="0 0 58 58" fill="none" xmlns="http://www.w3.org/2000/svg">
<path d="M57.4973 26.2938C54.5461 24.7851 51.2954 24 48 24C44.7046 24 41.4539 24.7851 38.5027 26.2938C38.3509 26.3718 38.2234 26.492 38.1345 26.6408C38.0457 26.7895 37.9991 26.9609 38 27.1355V57.0643C37.9999 57.2237 38.0395 57.3805 38.1149 57.5198C38.1903 57.6591 38.2991 57.7763 38.4309 57.8601C38.5627 57.944 38.7132 57.9918 38.868 57.999C39.0228 58.0063 39.1768 57.9726 39.3155 57.9014C42.0139 56.521 44.9864 55.8026 48 55.8026C51.0136 55.8026 53.9861 56.521 56.6845 57.9014C56.8232 57.9726 56.9772 58.0063 57.132 57.999C57.2868 57.9918 57.4373 57.944 57.5691 57.8601C57.7009 57.7763 57.8097 57.6591 57.8851 57.5198C57.9605 57.3805 58.0001 57.2237 58 57.0643V27.1355C58.0009 26.9609 57.9543 26.7895 57.8655 26.6408C57.7766 26.492 57.6491 26.3718 57.4973 26.2938ZM54.3154 49.2248C54.2391 49.4601 54.0751 49.6545 53.8594 49.7654C53.6438 49.8762 53.3941 49.8944 53.1654 49.8159C49.81 48.6741 46.1864 48.6741 42.8309 49.8159C42.7175 49.8547 42.5978 49.8702 42.4785 49.8614C42.3593 49.8526 42.243 49.8197 42.1361 49.7647C42.0292 49.7096 41.9339 49.6334 41.8557 49.5405C41.7774 49.4475 41.7177 49.3396 41.68 49.2229C41.6423 49.1063 41.6273 48.9831 41.6358 48.8604C41.6444 48.7378 41.6763 48.6181 41.7298 48.5081C41.7833 48.3982 41.8574 48.3001 41.9477 48.2196C42.0381 48.1391 42.143 48.0777 42.2564 48.0389C45.9847 46.7688 50.0117 46.7688 53.74 48.0389C53.8542 48.0774 53.9598 48.1389 54.0508 48.2197C54.1418 48.3006 54.2162 48.3992 54.2699 48.5098C54.3236 48.6204 54.3554 48.7409 54.3636 48.8643C54.3717 48.9877 54.3559 49.1115 54.3173 49.2286L54.3154 49.2248ZM54.3154 41.7426C54.2391 41.9779 54.0751 42.1723 53.8594 42.2832C53.6438 42.394 53.3941 42.4122 53.1654 42.3337C49.81 41.1919 46.1864 41.1919 42.8309 42.3337C42.7175 42.3725 42.5978 42.388 42.4785 42.3792C42.3593 42.3704 42.243 42.3375 42.1361 42.2825C42.0292 42.2274 41.9339 42.1512 41.8557 42.0583C41.7774 41.9653 41.7177 41.8574 41.68 41.7408C41.6423 41.6241 41.6273 41.5009 41.6358 41.3782C41.6444 41.2556 41.6763 41.1359 41.7298 41.0259C41.7833 40.916 41.8574 40.8179 41.9477 40.7374C42.0381 40.6569 42.143 40.5955 42.2564 40.5567C45.9847 39.2866 50.0117 39.2866 53.74 40.5567C53.8542 40.5952 53.9598 40.6567 54.0508 40.7376C54.1418 40.8184 54.2162 40.917 54.2699 41.0276C54.3236 41.1382 54.3554 41.2587 54.3636 41.3821C54.3717 41.5055 54.3559 41.6293 54.3173 41.7464L54.3154 41.7426ZM54.3154 34.2604C54.2391 34.4957 54.0751 34.6901 53.8594 34.801C53.6438 34.9118 53.3941 34.93 53.1654 34.8515C49.81 33.7097 46.1864 33.7097 42.8309 34.8515C42.7175 34.8903 42.5978 34.9058 42.4785 34.897C42.3593 34.8882 42.243 34.8553 42.1361 34.8003C42.0292 34.7452 41.9339 34.669 41.8557 34.5761C41.7774 34.4831 41.7177 34.3752 41.68 34.2586C41.6423 34.1419 41.6273 34.0187 41.6358 33.896C41.6444 33.7734 41.6763 33.6537 41.7298 33.5437C41.7833 33.4338 41.8574 33.3357 41.9477 33.2552C42.0381 33.1747 42.143 33.1133 42.2564 33.0745C45.9847 31.8044 50.0117 31.8044 53.74 33.0745C53.8542 33.1131 53.9598 33.1745 54.0508 33.2554C54.1418 33.3362 54.2162 33.4348 54.2699 33.5454C54.3236 33.656 54.3554 33.7765 54.3636 33.8999C54.3717 34.0233 54.3559 34.1471 54.3173 34.2642L54.3154 34.2604Z" fill="#F7EC00"/>
<path d="M34.4973 26.2938C31.5461 24.7851 28.2954 24 25 24C21.7046 24 18.4539 24.7851 15.5027 26.2938C15.3509 26.3718 15.2234 26.492 15.1345 26.6408C15.0457 26.7895 14.9991 26.9609 15 27.1355V57.0643C14.9999 57.2237 15.0395 57.3805 15.1149 57.5198C15.1903 57.6591 15.2991 57.7763 15.4309 57.8601C15.5627 57.944 15.7132 57.9918 15.868 57.999C16.0228 58.0063 16.1768 57.9726 16.3155 57.9014C19.0139 56.521 21.9864 55.8026 25 55.8026C28.0136 55.8026 30.9861 56.521 33.6845 57.9014C33.8232 57.9726 33.9772 58.0063 34.132 57.999C34.2868 57.9918 34.4373 57.944 34.5691 57.8601C34.7009 57.7763 34.8097 57.6591 34.8851 57.5198C34.9605 57.3805 35.0001 57.2237 35 57.0643V27.1355C35.0009 26.9609 34.9543 26.7895 34.8655 26.6408C34.7766 26.492 34.6491 26.3718 34.4973 26.2938ZM31.3154 49.2248C31.2391 49.4601 31.0751 49.6545 30.8594 49.7654C30.6438 49.8762 30.3941 49.8944 30.1654 49.8159C26.81 48.6741 23.1864 48.6741 19.8309 49.8159C19.7175 49.8547 19.5978 49.8702 19.4785 49.8614C19.3593 49.8526 19.243 49.8197 19.1361 49.7647C19.0292 49.7096 18.9339 49.6334 18.8557 49.5405C18.7774 49.4475 18.7177 49.3396 18.68 49.2229C18.6423 49.1063 18.6273 48.9831 18.6358 48.8604C18.6444 48.7378 18.6763 48.6181 18.7298 48.5081C18.7833 48.3982 18.8574 48.3001 18.9477 48.2196C19.0381 48.1391 19.143 48.0777 19.2564 48.0389C22.9847 46.7688 27.0117 46.7688 30.74 48.0389C30.8542 48.0774 30.9598 48.1389 31.0508 48.2197C31.1418 48.3006 31.2162 48.3992 31.2699 48.5098C31.3236 48.6204 31.3554 48.7409 31.3636 48.8643C31.3717 48.9877 31.3559 49.1115 31.3173 49.2286L31.3154 49.2248ZM31.3154 41.7426C31.2391 41.9779 31.0751 42.1723 30.8594 42.2832C30.6438 42.394 30.3941 42.4122 30.1654 42.3337C26.81 41.1919 23.1864 41.1919 19.8309 42.3337C19.7175 42.3725 19.5978 42.388 19.4785 42.3792C19.3593 42.3704 19.243 42.3375 19.1361 42.2825C19.0292 42.2274 18.9339 42.1512 18.8557 42.0583C18.7774 41.9653 18.7177 41.8574 18.68 41.7408C18.6423 41.6241 18.6273 41.5009 18.6358 41.3782C18.6444 41.2556 18.6763 41.1359 18.7298 41.0259C18.7833 40.916 18.8574 40.8179 18.9477 40.7374C19.0381 40.6569 19.143 40.5955 19.2564 40.5567C22.9847 39.2866 27.0117 39.2866 30.74 40.5567C30.8542 40.5952 30.9598 40.6567 31.0508 40.7376C31.1418 40.8184 31.2162 40.917 31.2699 41.0276C31.3236 41.1382 31.3554 41.2587 31.3636 41.3821C31.3717 41.5055 31.3559 41.6293 31.3173 41.7464L31.3154 41.7426ZM31.3154 34.2604C31.2391 34.4957 31.0751 34.6901 30.8594 34.801C30.6438 34.9118 30.3941 34.93 30.1654 34.8515C26.81 33.7097 23.1864 33.7097 19.8309 34.8515C19.7175 34.8903 19.5978 34.9058 19.4785 34.897C19.3593 34.8882 19.243 34.8553 19.1361 34.8003C19.0292 34.7452 18.9339 34.669 18.8557 34.5761C18.7774 34.4831 18.7177 34.3752 18.68 34.2586C18.6423 34.1419 18.6273 34.0187 18.6358 33.896C18.6444 33.7734 18.6763 33.6537 18.7298 33.5437C18.7833 33.4338 18.8574 33.3357 18.9477 33.2552C19.0381 33.1747 19.143 33.1133 19.2564 33.0745C22.9847 31.8044 27.0117 31.8044 30.74 33.0745C30.8542 33.1131 30.9598 33.1745 31.0508 33.2554C31.1418 33.3362 31.2162 33.4348 31.2699 33.5454C31.3236 33.656 31.3554 33.7765 31.3636 33.8999C31.3717 34.0233 31.3559 34.1471 31.3173 34.2642L31.3154 34.2604Z" fill="#F7EC00"/>
<path d="M47.7093 38.3545H44.9029V16.8386H46.7738C46.9408 16.8386 47.1048 16.7939 47.2486 16.7091C47.3925 16.6244 47.5111 16.5027 47.592 16.3566C47.673 16.2105 47.7134 16.0455 47.709 15.8786C47.7046 15.7116 47.6556 15.5489 47.5671 15.4073L43.4398 8.80284C43.1886 8.39816 42.8381 8.0645 42.4215 7.83361C42.005 7.60273 41.5362 7.48231 41.0599 7.48381H25.2579V5.61286H31.8062C32.0543 5.61286 32.2923 5.5143 32.4677 5.33887C32.6431 5.16343 32.7417 4.92549 32.7417 4.67738V0.935477C32.7417 0.687373 32.6431 0.449431 32.4677 0.273995C32.2923 0.0985588 32.0543 0 31.8062 0H24.3224C24.0743 0 23.8363 0.0985588 23.6609 0.273995C23.4855 0.449431 23.3869 0.687373 23.3869 0.935477V7.48381H7.58485C7.10857 7.48231 6.63983 7.60273 6.22326 7.83361C5.80669 8.0645 5.45614 8.39816 5.20499 8.80284L1.07767 15.4073C0.989166 15.5489 0.94018 15.7116 0.935797 15.8786C0.931414 16.0455 0.971794 16.2105 1.05274 16.3566C1.13369 16.5027 1.25226 16.6244 1.39614 16.7091C1.54002 16.7939 1.70397 16.8386 1.87095 16.8386H3.74191V38.3545H0.935477C0.687373 38.3545 0.449431 38.4531 0.273995 38.6285C0.0985588 38.804 0 39.0419 0 39.29C0 39.5381 0.0985588 39.7761 0.273995 39.9515C0.449431 40.1269 0.687373 40.2255 0.935477 40.2255H47.7093C47.9574 40.2255 48.1954 40.1269 48.3708 39.9515C48.5462 39.7761 48.6448 39.5381 48.6448 39.29C48.6448 39.0419 48.5462 38.804 48.3708 38.6285C48.1954 38.4531 47.9574 38.3545 47.7093 38.3545ZM41.8523 9.79444L45.09 14.9676H34.9167L27.199 9.35477H41.0599C41.2186 9.35422 41.3747 9.39434 41.5134 9.47132C41.6521 9.54829 41.7688 9.65954 41.8523 9.79444ZM25.2579 1.87095H30.8707V3.74191H25.2579V1.87095ZM6.7925 9.79444C6.87597 9.65954 6.99264 9.54829 7.13136 9.47132C7.27007 9.39434 7.42621 9.35422 7.58485 9.35477H21.4458L13.7281 14.9676H3.55481L6.7925 9.79444ZM5.61286 16.8386H13.0967V38.3545H5.61286V16.8386ZM14.9676 16.3793L24.3224 9.57554L33.6772 16.3793V38.3545H29.9353V31.8062C29.9353 31.0619 29.6396 30.3481 29.1133 29.8218C28.587 29.2955 27.8731 28.9998 27.1288 28.9998H21.516C20.7717 28.9998 20.0578 29.2955 19.5315 29.8218C19.0052 30.3481 18.7095 31.0619 18.7095 31.8062V38.3545H14.9676V16.3793ZM20.5805 31.8062C20.5805 31.5581 20.679 31.3202 20.8545 31.1447C21.0299 30.9693 21.2679 30.8707 21.516 30.8707H23.3869V38.3545H20.5805V31.8062ZM25.2579 38.3545V30.8707H27.1288C27.3769 30.8707 27.6149 30.9693 27.7903 31.1447C27.9657 31.3202 28.0643 31.5581 28.0643 31.8062V38.3545H25.2579ZM35.5481 38.3545V16.8386H43.0319V38.3545H35.5481Z" fill="#072538"/>
<path d="M24.3229 20.5804C25.063 20.5804 25.7864 20.3609 26.4018 19.9497C27.0171 19.5386 27.4968 18.9542 27.78 18.2704C28.0632 17.5867 28.1373 16.8343 27.9929 16.1085C27.8485 15.3826 27.4921 14.7159 26.9688 14.1925C26.4455 13.6692 25.7788 13.3128 25.0529 13.1685C24.3271 13.0241 23.5747 13.0982 22.8909 13.3814C22.2072 13.6646 21.6228 14.1442 21.2116 14.7596C20.8005 15.3749 20.581 16.0984 20.581 16.8385C20.581 17.8309 20.9752 18.7827 21.677 19.4844C22.3787 20.1861 23.3305 20.5804 24.3229 20.5804ZM24.3229 14.9675C24.6929 14.9675 25.0547 15.0772 25.3623 15.2828C25.67 15.4884 25.9098 15.7806 26.0514 16.1225C26.193 16.4644 26.2301 16.8405 26.1579 17.2035C26.0857 17.5664 25.9075 17.8998 25.6459 18.1614C25.3842 18.4231 25.0508 18.6013 24.6879 18.6735C24.325 18.7457 23.9488 18.7086 23.6069 18.567C23.265 18.4254 22.9728 18.1856 22.7673 17.8779C22.5617 17.5702 22.4519 17.2085 22.4519 16.8385C22.4519 16.3423 22.6491 15.8664 22.9999 15.5155C23.3508 15.1646 23.8267 14.9675 24.3229 14.9675Z" fill="#072538"/>
<path d="M18.7096 25.2578H20.5806C20.8287 25.2578 21.0666 25.1592 21.2421 24.9838C21.4175 24.8084 21.516 24.5704 21.516 24.3223C21.516 24.0742 21.4175 23.8363 21.2421 23.6608C21.0666 23.4854 20.8287 23.3868 20.5806 23.3868H18.7096C18.4615 23.3868 18.2236 23.4854 18.0481 23.6608C17.8727 23.8363 17.7741 24.0742 17.7741 24.3223C17.7741 24.5704 17.8727 24.8084 18.0481 24.9838C18.2236 25.1592 18.4615 25.2578 18.7096 25.2578Z" fill="#072538"/>
<path d="M10.2903 19.6451H8.41939C8.17129 19.6451 7.93335 19.7437 7.75791 19.9191C7.58248 20.0946 7.48392 20.3325 7.48392 20.5806C7.48392 20.8287 7.58248 21.0667 7.75791 21.2421C7.93335 21.4175 8.17129 21.5161 8.41939 21.5161H10.2903C10.5385 21.5161 10.7764 21.4175 10.9518 21.2421C11.1273 21.0667 11.2258 20.8287 11.2258 20.5806C11.2258 20.3325 11.1273 20.0946 10.9518 19.9191C10.7764 19.7437 10.5385 19.6451 10.2903 19.6451Z" fill="#072538"/>
<path d="M10.2903 26.1934H8.41939C8.17129 26.1934 7.93335 26.2919 7.75791 26.4674C7.58248 26.6428 7.48392 26.8807 7.48392 27.1288C7.48392 27.3769 7.58248 27.6149 7.75791 27.7903C7.93335 27.9658 8.17129 28.0643 8.41939 28.0643H10.2903C10.5385 28.0643 10.7764 27.9658 10.9518 27.7903C11.1273 27.6149 11.2258 27.3769 11.2258 27.1288C11.2258 26.8807 11.1273 26.6428 10.9518 26.4674C10.7764 26.2919 10.5385 26.1934 10.2903 26.1934Z" fill="#072538"/>
<path d="M10.2903 32.7417H8.41939C8.17129 32.7417 7.93335 32.8403 7.75791 33.0157C7.58248 33.1911 7.48392 33.4291 7.48392 33.6772C7.48392 33.9253 7.58248 34.1632 7.75791 34.3387C7.93335 34.5141 8.17129 34.6127 8.41939 34.6127H10.2903C10.5385 34.6127 10.7764 34.5141 10.9518 34.3387C11.1273 34.1632 11.2258 33.9253 11.2258 33.6772C11.2258 33.4291 11.1273 33.1911 10.9518 33.0157C10.7764 32.8403 10.5385 32.7417 10.2903 32.7417Z" fill="#072538"/>
<path d="M40.226 19.6451H38.355C38.1069 19.6451 37.869 19.7437 37.6935 19.9191C37.5181 20.0946 37.4195 20.3325 37.4195 20.5806C37.4195 20.8287 37.5181 21.0667 37.6935 21.2421C37.869 21.4175 38.1069 21.5161 38.355 21.5161H40.226C40.4741 21.5161 40.712 21.4175 40.8874 21.2421C41.0629 21.0667 41.1614 20.8287 41.1614 20.5806C41.1614 20.3325 41.0629 20.0946 40.8874 19.9191C40.712 19.7437 40.4741 19.6451 40.226 19.6451Z" fill="#072538"/>
<path d="M40.226 26.1934H38.355C38.1069 26.1934 37.869 26.2919 37.6935 26.4674C37.5181 26.6428 37.4195 26.8807 37.4195 27.1288C37.4195 27.3769 37.5181 27.6149 37.6935 27.7903C37.869 27.9658 38.1069 28.0643 38.355 28.0643H40.226C40.4741 28.0643 40.712 27.9658 40.8874 27.7903C41.0629 27.6149 41.1614 27.3769 41.1614 27.1288C41.1614 26.8807 41.0629 26.6428 40.8874 26.4674C40.712 26.2919 40.4741 26.1934 40.226 26.1934Z" fill="#072538"/>
<path d="M40.226 32.7417H38.355C38.1069 32.7417 37.869 32.8403 37.6935 33.0157C37.5181 33.1911 37.4195 33.4291 37.4195 33.6772C37.4195 33.9253 37.5181 34.1632 37.6935 34.3387C37.869 34.5141 38.1069 34.6127 38.355 34.6127H40.226C40.4741 34.6127 40.712 34.5141 40.8874 34.3387C41.0629 34.1632 41.1614 33.9253 41.1614 33.6772C41.1614 33.4291 41.0629 33.1911 40.8874 33.0157C40.712 32.8403 40.4741 32.7417 40.226 32.7417Z" fill="#072538"/>
<path d="M27.1293 24.3223C27.1293 24.5704 27.2278 24.8084 27.4033 24.9838C27.5787 25.1592 27.8166 25.2578 28.0647 25.2578H29.9357C30.1838 25.2578 30.4217 25.1592 30.5972 24.9838C30.7726 24.8084 30.8712 24.5704 30.8712 24.3223C30.8712 24.0742 30.7726 23.8363 30.5972 23.6608C30.4217 23.4854 30.1838 23.3868 29.9357 23.3868H28.0647C27.8166 23.3868 27.5787 23.4854 27.4033 23.6608C27.2278 23.8363 27.1293 24.0742 27.1293 24.3223Z" fill="#072538"/>
</svg>
