<svg width="58" height="58" viewBox="0 0 58 58" fill="none" xmlns="http://www.w3.org/2000/svg">
<path d="M26.0175 46.7785C26.0175 46.5334 26.1157 46.2984 26.2905 46.1252C26.4653 45.9519 26.7024 45.8546 26.9496 45.8546C27.1968 45.8546 27.4338 45.9519 27.6086 46.1252C27.7834 46.2984 27.8816 46.5334 27.8816 46.7785V48.6262H46.5226V46.7785C46.5226 46.5334 46.6208 46.2984 46.7956 46.1252C46.9704 45.9519 47.2074 45.8546 47.4546 45.8546C47.7018 45.8546 47.9389 45.9519 48.1137 46.1252C48.2885 46.2984 48.3867 46.5334 48.3867 46.7785V48.6262H57.7072V31.0729C57.7072 30.3379 57.4126 29.6329 56.8882 29.1131C56.3638 28.5934 55.6526 28.3014 54.911 28.3014H43.7264V27.3775C43.7264 26.6425 43.4318 25.9375 42.9075 25.4177C42.3831 24.898 41.6719 24.606 40.9303 24.606H33.4739C32.7323 24.606 32.0211 24.898 31.4967 25.4177C30.9724 25.9375 30.6778 26.6425 30.6778 27.3775V28.3014H19.4932C18.7516 28.3014 18.0404 28.5934 17.516 29.1131C16.9916 29.6329 16.6971 30.3379 16.6971 31.0729V48.6262H26.0175V46.7785ZM32.5419 27.3775C32.5419 27.1325 32.6401 26.8975 32.8149 26.7243C32.9896 26.551 33.2267 26.4537 33.4739 26.4537H40.9303C41.1775 26.4537 41.4146 26.551 41.5894 26.7243C41.7641 26.8975 41.8623 27.1325 41.8623 27.3775V28.3014H32.5419V27.3775ZM26.0175 36.6161H48.3867C48.6339 36.6161 48.8709 36.7134 49.0457 36.8866C49.2205 37.0599 49.3187 37.2949 49.3187 37.5399C49.3187 37.7849 49.2205 38.0199 49.0457 38.1932C48.8709 38.3664 48.6339 38.4638 48.3867 38.4638H26.0175C25.7703 38.4638 25.5333 38.3664 25.3585 38.1932C25.1837 38.0199 25.0855 37.7849 25.0855 37.5399C25.0855 37.2949 25.1837 37.0599 25.3585 36.8866C25.5333 36.7134 25.7703 36.6161 26.0175 36.6161Z" fill="#F7EC00"/>
<path d="M48.3867 52.288C48.3867 52.5404 48.2885 52.7826 48.1137 52.9611C47.9389 53.1397 47.7018 53.24 47.4546 53.24C47.2074 53.24 46.9704 53.1397 46.7956 52.9611C46.6208 52.7826 46.5226 52.5404 46.5226 52.288V50.3839H27.8816V52.288C27.8816 52.5404 27.7834 52.7826 27.6086 52.9611C27.4338 53.1397 27.1968 53.24 26.9496 53.24C26.7024 53.24 26.4653 53.1397 26.2905 52.9611C26.1157 52.7826 26.0175 52.5404 26.0175 52.288V50.3839H16.6971V55.144C16.6971 55.9015 16.9916 56.6279 17.516 57.1636C18.0404 57.6992 18.7516 58.0001 19.4932 58.0001H54.911C55.6526 58.0001 56.3638 57.6992 56.8882 57.1636C57.4126 56.6279 57.7072 55.9015 57.7072 55.144V50.3839H48.3867V52.288Z" fill="#F7EC00"/>
<path d="M43.9677 0H2.80645C2.06213 0 1.3483 0.295679 0.821991 0.821991C0.295679 1.3483 0 2.06213 0 2.80645V21.5161C0 22.2604 0.295679 22.9743 0.821991 23.5006C1.3483 24.0269 2.06213 24.3226 2.80645 24.3226H5.68774C5.81391 25.1908 6.11328 26.0249 6.56806 26.7752C7.02285 27.5255 7.62378 28.1768 8.33516 28.6904C5.91156 29.496 3.80265 31.0434 2.30683 33.1136C0.811006 35.1837 0.00400346 37.6718 0 40.2258V45.8387C0 46.0868 0.0985596 46.3248 0.273997 46.5002C0.449434 46.6756 0.687378 46.7742 0.935484 46.7742H23.3871C23.6352 46.7742 23.8731 46.6756 24.0486 46.5002C24.224 46.3248 24.3226 46.0868 24.3226 45.8387V40.2258C24.3186 37.6718 23.5116 35.1837 22.0158 33.1136C20.5199 31.0434 18.411 29.496 15.9874 28.6904C16.6988 28.1768 17.2997 27.5255 17.7545 26.7752C18.2093 26.0249 18.5087 25.1908 18.6348 24.3226H22.4516V29C22.4516 29.1694 22.4975 29.3356 22.5846 29.4808C22.6716 29.6261 22.7964 29.7451 22.9458 29.825C23.0951 29.9049 23.2633 29.9427 23.4325 29.9345C23.6016 29.9263 23.7654 29.8723 23.9063 29.7783L32.0871 24.3226H43.9677C44.7121 24.3226 45.4259 24.0269 45.9522 23.5006C46.4785 22.9743 46.7742 22.2604 46.7742 21.5161V2.80645C46.7742 2.06213 46.4785 1.3483 45.9522 0.821991C45.4259 0.295679 44.7121 0 43.9677 0ZM22.4516 40.2258V44.9032H1.87097V40.2258C1.87097 37.4966 2.95512 34.8793 4.88493 32.9495C6.81474 31.0196 9.43213 29.9355 12.1613 29.9355C14.8905 29.9355 17.5078 31.0196 19.4376 32.9495C21.3675 34.8793 22.4516 37.4966 22.4516 40.2258ZM12.1613 28.0645C11.2362 28.0645 10.3319 27.7902 9.56266 27.2762C8.79346 26.7623 8.19394 26.0318 7.83992 25.1771C7.4859 24.3224 7.39327 23.3819 7.57375 22.4746C7.75423 21.5672 8.19971 20.7338 8.85386 20.0797C9.50801 19.4255 10.3414 18.98 11.2488 18.7996C12.1561 18.6191 13.0966 18.7117 13.9513 19.0657C14.8059 19.4197 15.5365 20.0193 16.0504 20.7885C16.5644 21.5577 16.8387 22.462 16.8387 23.3871C16.8372 24.6272 16.344 25.816 15.4671 26.6929C14.5902 27.5698 13.4014 28.063 12.1613 28.0645ZM44.9032 21.5161C44.9032 21.7642 44.8047 22.0022 44.6292 22.1776C44.4538 22.3531 44.2159 22.4516 43.9677 22.4516H31.8065C31.6217 22.4519 31.4411 22.5066 31.2873 22.6088L24.3226 27.2516V23.3871C24.3226 23.139 24.224 22.901 24.0486 22.7256C23.8731 22.5502 23.6352 22.4516 23.3871 22.4516H18.6348C18.4112 20.8942 17.6335 19.4696 16.4445 18.4391C15.2554 17.4086 13.7347 16.8414 12.1613 16.8414C10.5879 16.8414 9.06717 17.4086 7.87813 18.4391C6.68909 19.4696 5.91142 20.8942 5.68774 22.4516H2.80645C2.55835 22.4516 2.3204 22.3531 2.14496 22.1776C1.96953 22.0022 1.87097 21.7642 1.87097 21.5161V2.80645C1.87097 2.55835 1.96953 2.3204 2.14496 2.14496C2.3204 1.96953 2.55835 1.87097 2.80645 1.87097H43.9677C44.2159 1.87097 44.4538 1.96953 44.6292 2.14496C44.8047 2.3204 44.9032 2.55835 44.9032 2.80645V21.5161Z" fill="#072538"/>
<path d="M40.2259 5.61279H6.54849C6.30039 5.61279 6.06244 5.71135 5.88701 5.88679C5.71157 6.06223 5.61301 6.30017 5.61301 6.54828C5.61301 6.79638 5.71157 7.03433 5.88701 7.20976C6.06244 7.3852 6.30039 7.48376 6.54849 7.48376H40.2259C40.474 7.48376 40.712 7.3852 40.8874 7.20976C41.0628 7.03433 41.1614 6.79638 41.1614 6.54828C41.1614 6.30017 41.0628 6.06223 40.8874 5.88679C40.712 5.71135 40.474 5.61279 40.2259 5.61279Z" fill="#072538"/>
<path d="M40.2259 11.2255H6.54849C6.30039 11.2255 6.06244 11.324 5.88701 11.4995C5.71157 11.6749 5.61301 11.9128 5.61301 12.1609C5.61301 12.4091 5.71157 12.647 5.88701 12.8224C6.06244 12.9979 6.30039 13.0964 6.54849 13.0964H40.2259C40.474 13.0964 40.712 12.9979 40.8874 12.8224C41.0628 12.647 41.1614 12.4091 41.1614 12.1609C41.1614 11.9128 41.0628 11.6749 40.8874 11.4995C40.712 11.324 40.474 11.2255 40.2259 11.2255Z" fill="#072538"/>
<path d="M40.2257 16.8385H20.5805C20.3324 16.8385 20.0944 16.9371 19.919 17.1125C19.7436 17.2879 19.645 17.5259 19.645 17.774C19.645 18.0221 19.7436 18.26 19.919 18.4355C20.0944 18.6109 20.3324 18.7095 20.5805 18.7095H40.2257C40.4738 18.7095 40.7117 18.6109 40.8871 18.4355C41.0626 18.26 41.1611 18.0221 41.1611 17.774C41.1611 17.5259 41.0626 17.2879 40.8871 17.1125C40.7117 16.9371 40.4738 16.8385 40.2257 16.8385Z" fill="#072538"/>
</svg>
