<svg width="62" height="58" viewBox="0 0 62 58" fill="none" xmlns="http://www.w3.org/2000/svg">
<path d="M36.8011 31.457C36.8011 28.1403 37.4892 24.6958 38.8084 22.6099H33.852C32.6488 22.6099 30.903 26.0563 30.903 31.457C30.903 36.8578 32.6488 40.3042 33.852 40.3042H38.8084C37.4892 38.2202 36.8011 34.7757 36.8011 31.457Z" fill="#FFDB59"/>
<path d="M51.5464 31.457C51.5464 28.1403 52.2345 24.6958 53.5537 22.6099H41.7162C40.513 22.6099 38.7671 26.0563 38.7671 31.457C38.7671 36.8578 40.513 40.3042 41.7162 40.3042H53.5537C52.2345 38.2202 51.5464 34.7757 51.5464 31.457Z" fill="#FFDB59"/>
<path d="M28.9369 31.457C28.9369 28.1403 29.625 24.6958 30.9443 22.6099H17.1407C14.3381 22.6099 12.2256 26.4142 12.2256 31.457C12.2256 36.4999 14.3381 40.3042 17.1407 40.3042H30.9443C29.625 38.2202 28.9369 34.7757 28.9369 31.457Z" fill="#FFDB59"/>
<path d="M56.4615 22.6099C55.2582 22.6099 53.5124 26.0563 53.5124 31.457C53.5124 36.8578 55.2582 40.3042 56.4615 40.3042C59.264 40.3042 61.3766 36.5009 61.3766 31.457C61.3766 26.4132 59.264 22.6099 56.4615 22.6099Z" fill="#FFDB59"/>
<path d="M48.263 42.2703H37.6228L43.8857 57.3921C43.96 57.5718 44.086 57.7254 44.2477 57.8334C44.4094 57.9415 44.5995 57.9992 44.794 57.9992C44.9884 57.9992 45.1786 57.9415 45.3402 57.8334C45.5019 57.7254 45.6279 57.5718 45.7023 57.3921L47.454 53.1651L51.681 54.9168C51.8607 54.9911 52.0583 55.0105 52.2489 54.9725C52.4396 54.9345 52.6147 54.8408 52.7521 54.7033C52.8895 54.5658 52.9831 54.3906 53.0209 54.1999C53.0588 54.0092 53.0393 53.8116 52.9648 53.632L48.263 42.2703Z" fill="#FFDB59"/>
<path d="M25.339 42.2703H35.9792L29.7164 57.393C29.642 57.5727 29.516 57.7263 29.3543 57.8344C29.1927 57.9425 29.0026 58.0002 28.8081 58.0002C28.6136 58.0002 28.4235 57.9425 28.2618 57.8344C28.1001 57.7263 27.9741 57.5727 27.8998 57.393L26.148 53.1661L21.921 54.9178C21.7414 54.9921 21.5438 55.0115 21.3531 54.9735C21.1625 54.9355 20.9874 54.8418 20.8499 54.7043C20.7125 54.5667 20.619 54.3916 20.5811 54.2009C20.5432 54.0102 20.5628 53.8126 20.6372 53.633L25.339 42.2703Z" fill="#FFDB59"/>
<path d="M49.3153 8.04818L25.3175 0.0512214C25.1124 -0.0170738 24.8906 -0.0170738 24.6855 0.0512214L0.687689 8.04818C0.487638 8.11392 0.313453 8.24112 0.189968 8.41164C0.066482 8.58216 0 8.78731 0 8.99782C0 9.20834 0.066482 9.41349 0.189968 9.58401C0.313453 9.75453 0.487638 9.88173 0.687689 9.94746L2.00357 10.3843V29.577L0.296724 31.2814C0.114582 31.4699 0.0137964 31.7224 0.0160746 31.9845C0.0183529 32.2466 0.123512 32.4973 0.308904 32.6827C0.494295 32.868 0.745085 32.9731 1.00726 32.9754C1.26943 32.9777 1.52201 32.8769 1.7106 32.6948L3.00348 31.4023L4.29637 32.6948C4.3886 32.7903 4.49894 32.8665 4.62093 32.9188C4.74293 32.9712 4.87413 32.9988 5.0069 33C5.13967 33.0011 5.27134 32.9758 5.39422 32.9256C5.51711 32.8753 5.62875 32.8011 5.72263 32.7072C5.81652 32.6134 5.89076 32.5018 5.94104 32.3789C5.99132 32.2561 6.01662 32.1244 6.01546 31.9917C6.01431 31.859 5.98672 31.7278 5.93432 31.6058C5.88192 31.4839 5.80574 31.3736 5.71024 31.2814L4.00339 29.575V11.05L11.4617 13.5351L10.0099 25.8734C9.98448 26.0878 10.0292 26.3046 10.1374 26.4915C10.2455 26.6783 10.4112 26.8252 10.6098 26.91L24.6805 32.9077C24.805 32.9611 24.9391 32.9886 25.0745 32.9886C25.21 32.9886 25.344 32.9611 25.4685 32.9077L39.3962 26.91C39.5944 26.8253 39.7599 26.6787 39.868 26.4923C39.9761 26.3059 40.0211 26.0895 39.9962 25.8754L38.5413 13.5351L49.3153 9.94547C49.5147 9.87926 49.6881 9.752 49.811 9.58172C49.9339 9.41144 50 9.2068 50 8.99682C50 8.78685 49.9339 8.58221 49.811 8.41193C49.6881 8.24165 49.5147 8.11438 49.3153 8.04818ZM25.0705 30.9005L12.0837 25.3646L13.4026 14.1809L24.6885 17.9424C24.8937 18.0107 25.1154 18.0107 25.3205 17.9424L36.6005 14.1809L37.9164 25.3666L25.0705 30.9005ZM25.0015 15.9402L4.16538 8.99682L25.0015 2.05346L45.8377 8.99682L25.0015 15.9402Z" fill="#072538"/>
</svg>
