<svg width="49" height="41" viewBox="0 0 49 41" fill="none" xmlns="http://www.w3.org/2000/svg">
<path d="M47.7093 38.3545H44.9029V16.8386H46.7738C46.9408 16.8386 47.1048 16.7939 47.2486 16.7091C47.3925 16.6244 47.5111 16.5027 47.592 16.3566C47.673 16.2105 47.7134 16.0455 47.709 15.8786C47.7046 15.7116 47.6556 15.5489 47.5671 15.4073L43.4398 8.80284C43.1886 8.39816 42.8381 8.0645 42.4215 7.83361C42.005 7.60273 41.5362 7.48231 41.0599 7.48381H25.2579V5.61286H31.8062C32.0543 5.61286 32.2923 5.5143 32.4677 5.33887C32.6431 5.16343 32.7417 4.92549 32.7417 4.67738V0.935477C32.7417 0.687373 32.6431 0.449431 32.4677 0.273995C32.2923 0.0985588 32.0543 0 31.8062 0H24.3224C24.0743 0 23.8363 0.0985588 23.6609 0.273995C23.4855 0.449431 23.3869 0.687373 23.3869 0.935477V7.48381H7.58485C7.10857 7.48231 6.63983 7.60273 6.22326 7.83361C5.80669 8.0645 5.45614 8.39816 5.20499 8.80284L1.07767 15.4073C0.989166 15.5489 0.94018 15.7116 0.935797 15.8786C0.931414 16.0455 0.971794 16.2105 1.05274 16.3566C1.13369 16.5027 1.25226 16.6244 1.39614 16.7091C1.54002 16.7939 1.70397 16.8386 1.87095 16.8386H3.74191V38.3545H0.935477C0.687373 38.3545 0.449431 38.4531 0.273995 38.6285C0.0985588 38.804 0 39.0419 0 39.29C0 39.5381 0.0985588 39.7761 0.273995 39.9515C0.449431 40.1269 0.687373 40.2255 0.935477 40.2255H47.7093C47.9574 40.2255 48.1954 40.1269 48.3708 39.9515C48.5462 39.7761 48.6448 39.5381 48.6448 39.29C48.6448 39.0419 48.5462 38.804 48.3708 38.6285C48.1954 38.4531 47.9574 38.3545 47.7093 38.3545ZM41.8523 9.79444L45.09 14.9676H34.9167L27.199 9.35477H41.0599C41.2186 9.35422 41.3747 9.39434 41.5134 9.47132C41.6521 9.54829 41.7688 9.65954 41.8523 9.79444ZM25.2579 1.87095H30.8707V3.74191H25.2579V1.87095ZM6.7925 9.79444C6.87597 9.65954 6.99264 9.54829 7.13136 9.47132C7.27007 9.39434 7.42621 9.35422 7.58485 9.35477H21.4458L13.7281 14.9676H3.55481L6.7925 9.79444ZM5.61286 16.8386H13.0967V38.3545H5.61286V16.8386ZM14.9676 16.3793L24.3224 9.57554L33.6772 16.3793V38.3545H29.9353V31.8062C29.9353 31.0619 29.6396 30.3481 29.1133 29.8218C28.587 29.2955 27.8731 28.9998 27.1288 28.9998H21.516C20.7717 28.9998 20.0578 29.2955 19.5315 29.8218C19.0052 30.3481 18.7095 31.0619 18.7095 31.8062V38.3545H14.9676V16.3793ZM20.5805 31.8062C20.5805 31.5581 20.679 31.3202 20.8545 31.1447C21.0299 30.9693 21.2679 30.8707 21.516 30.8707H23.3869V38.3545H20.5805V31.8062ZM25.2579 38.3545V30.8707H27.1288C27.3769 30.8707 27.6149 30.9693 27.7903 31.1447C27.9657 31.3202 28.0643 31.5581 28.0643 31.8062V38.3545H25.2579ZM35.5481 38.3545V16.8386H43.0319V38.3545H35.5481Z" fill="#072538"/>
</svg>
