<svg width="34" height="34" viewBox="0 0 34 34" fill="none" xmlns="http://www.w3.org/2000/svg">
<path fill-rule="evenodd" clip-rule="evenodd" d="M17 34C7.6109 34 0 26.3891 0 17C0 7.6109 7.6109 0 17 0C26.3891 0 34 7.6109 34 17C34 26.3891 26.3891 34 17 34ZM30.6 17C30.6 13.3931 29.1671 9.93384 26.6167 7.38335C24.0662 4.83285 20.6069 3.4 17 3.4C13.3931 3.4 9.93384 4.83285 7.38335 7.38335C4.83285 9.93384 3.4 13.3931 3.4 17C3.4 20.6069 4.83285 24.0662 7.38335 26.6167C9.93384 29.1671 13.3931 30.6 17 30.6C20.6069 30.6 24.0662 29.1671 26.6167 26.6167C29.1671 24.0662 30.6 20.6069 30.6 17ZM23.8 15.3C24.2509 15.3 24.6833 15.4791 25.0021 15.7979C25.3209 16.1167 25.5 16.5491 25.5 17C25.5 17.4509 25.3209 17.8833 25.0021 18.2021C24.6833 18.5209 24.2509 18.7 23.8 18.7H18.7C16.83 18.7 15.3 17.17 15.3 15.3V8.5C15.3 8.04913 15.4791 7.61673 15.7979 7.29792C16.1167 6.97911 16.5491 6.8 17 6.8C17.4509 6.8 17.8833 6.97911 18.2021 7.29792C18.5209 7.61673 18.7 8.04913 18.7 8.5V15.3H23.8Z" fill="white"/>
</svg>
