<svg width="43" height="38" viewBox="0 0 43 38" fill="none" xmlns="http://www.w3.org/2000/svg">
<rect width="43" height="38" rx="3" fill="#082437"/>
<path d="M32.3433 5.38818H11.388C9.46191 5.38818 7.89551 6.95459 7.89551 8.88072V29.8359C7.89551 31.7621 9.46191 33.3285 11.388 33.3285H21.8657V23.724H18.3731V19.3583H21.8657V15.8658C21.8657 12.9722 24.2109 10.627 27.1045 10.627H30.597V14.9927H28.8507C27.8868 14.9927 27.1045 14.9019 27.1045 15.8658V19.3583H31.4701L29.7239 23.724H27.1045V33.3285H32.3433C34.2694 33.3285 35.8358 31.7621 35.8358 29.8359V8.88072C35.8358 6.95459 34.2694 5.38818 32.3433 5.38818Z" fill="white"/>
</svg>
