<svg width="43" height="42" viewBox="0 0 43 42" fill="none" xmlns="http://www.w3.org/2000/svg">
<rect width="43" height="38" rx="3" fill="#082437"/>
<g filter="url(#filter0_d)">
<path d="M26.373 5.38818H15.8954C11.074 5.38818 7.16406 9.29808 7.16406 14.1195V24.5971C7.16406 29.4186 11.074 33.3285 15.8954 33.3285H26.373C31.1945 33.3285 35.1044 29.4186 35.1044 24.5971V14.1195C35.1044 9.29808 31.1945 5.38818 26.373 5.38818ZM32.485 24.5971C32.485 27.9674 29.7433 30.7091 26.373 30.7091H15.8954C12.5251 30.7091 9.78347 27.9674 9.78347 24.5971V14.1195C9.78347 10.7492 12.5251 8.00759 15.8954 8.00759H26.373C29.7433 8.00759 32.485 10.7492 32.485 14.1195V24.5971Z" fill="white"/>
<path d="M21.1342 12.3733C17.2767 12.3733 14.1492 15.5009 14.1492 19.3584C14.1492 23.2159 17.2767 26.3434 21.1342 26.3434C24.9918 26.3434 28.1193 23.2159 28.1193 19.3584C28.1193 15.5009 24.9918 12.3733 21.1342 12.3733ZM21.1342 23.724C18.7279 23.724 16.7686 21.7647 16.7686 19.3584C16.7686 16.9503 18.7279 14.9927 21.1342 14.9927C23.5406 14.9927 25.4999 16.9503 25.4999 19.3584C25.4999 21.7647 23.5406 23.724 21.1342 23.724Z" fill="white"/>
<path d="M28.6437 12.78C29.1577 12.78 29.5744 12.3633 29.5744 11.8492C29.5744 11.3352 29.1577 10.9185 28.6437 10.9185C28.1296 10.9185 27.7129 11.3352 27.7129 11.8492C27.7129 12.3633 28.1296 12.78 28.6437 12.78Z" fill="white"/>
</g>
<defs>
<filter id="filter0_d" x="3.16406" y="5.38818" width="35.9403" height="35.9403" filterUnits="userSpaceOnUse" color-interpolation-filters="sRGB">
<feFlood flood-opacity="0" result="BackgroundImageFix"/>
<feColorMatrix in="SourceAlpha" type="matrix" values="0 0 0 0 0 0 0 0 0 0 0 0 0 0 0 0 0 0 127 0"/>
<feOffset dy="4"/>
<feGaussianBlur stdDeviation="2"/>
<feColorMatrix type="matrix" values="0 0 0 0 0 0 0 0 0 0 0 0 0 0 0 0 0 0 0.25 0"/>
<feBlend mode="normal" in2="BackgroundImageFix" result="effect1_dropShadow"/>
<feBlend mode="normal" in="SourceGraphic" in2="effect1_dropShadow" result="shape"/>
</filter>
</defs>
</svg>
