<svg width="42" height="38" viewBox="0 0 42 38" fill="none" xmlns="http://www.w3.org/2000/svg">
<rect width="42" height="38" rx="3" fill="#082437"/>
<path d="M21.0029 4.67163H20.996C13.2932 4.67163 7.0293 10.9372 7.0293 18.6418C7.0293 21.6978 8.01419 24.5302 9.68886 26.83L7.94783 32.0199L13.3176 30.3034C15.5266 31.7667 18.1618 32.6119 21.0029 32.6119C28.7057 32.6119 34.9696 26.3446 34.9696 18.6418C34.9696 10.939 28.7057 4.67163 21.0029 4.67163ZM29.1318 24.3992C28.7948 25.3509 27.4571 26.1403 26.3902 26.3708C25.6602 26.5262 24.7068 26.6502 21.4971 25.3195C17.3917 23.6186 14.7478 19.4468 14.5417 19.1761C14.3444 18.9055 12.8828 16.9671 12.8828 14.9624C12.8828 12.9577 13.9009 11.9815 14.3112 11.5624C14.6483 11.2184 15.2053 11.0612 15.7397 11.0612C15.9126 11.0612 16.068 11.07 16.2077 11.0769C16.6181 11.0944 16.8241 11.1189 17.0948 11.7667C17.4318 12.5787 18.2526 14.5835 18.3504 14.7895C18.4499 14.9956 18.5494 15.275 18.4097 15.5456C18.2788 15.825 18.1635 15.949 17.9574 16.1865C17.7514 16.424 17.5558 16.6056 17.3497 16.8606C17.1611 17.0824 16.9481 17.3199 17.1856 17.7302C17.4231 18.1319 18.2438 19.4713 19.4523 20.547C21.0117 21.9352 22.276 22.3788 22.7283 22.5674C23.0653 22.7071 23.4669 22.6739 23.7131 22.412C24.0257 22.0749 24.4117 21.5161 24.8046 20.9661C25.084 20.5714 25.4367 20.5225 25.8069 20.6622C26.1841 20.7932 28.1801 21.7798 28.5905 21.9841C29.0008 22.1902 29.2715 22.288 29.3711 22.4609C29.4688 22.6338 29.4688 23.4458 29.1318 24.3992Z" fill="white"/>
</svg>
