<svg width="396" height="400" viewBox="0 0 396 400" fill="none" xmlns="http://www.w3.org/2000/svg">
<path d="M225.905 400L224.808 399.634C223.345 399.269 188.245 388.3 151.316 361.974C102.322 326.874 73.8024 281.17 69.4149 229.982V229.616V40.2194L73.4368 40.585C73.4368 40.585 79.2869 40.9507 88.7933 40.9507C119.872 40.9507 178.738 35.8318 223.345 1.82815L225.539 0L227.733 1.82815C272.706 35.8318 331.206 40.9507 362.285 40.9507C371.791 40.9507 377.642 40.585 377.642 40.585L381.664 40.2194V229.616C377.276 281.17 348.757 326.874 299.762 361.609C262.833 387.934 227.733 398.538 226.27 399.269L225.905 400ZM77.0931 229.616C81.4806 279.342 107.806 321.755 155.704 355.759C187.879 378.793 219.689 389.762 225.905 391.956C232.121 389.762 263.93 378.793 296.106 355.759C344.003 321.755 370.329 279.342 374.716 229.616V48.6289C371.791 48.6289 367.77 48.9945 362.651 48.9945C331.206 48.9945 271.974 43.8757 225.539 10.2377C179.47 43.8757 120.238 48.9945 88.4276 48.9945C83.3088 48.9945 79.2869 48.9945 76.3618 48.6289V229.616H77.0931Z" fill="black" fill-opacity="0.05"/>
<path d="M225.908 384.642H225.176C224.811 384.642 191.538 374.038 157.169 349.907C125.359 327.237 86.6025 288.115 81.4836 227.786V53.0144L83.6774 53.38C83.6774 53.38 89.1619 53.7457 98.3026 53.7457C127.553 53.7457 182.763 48.9925 224.811 17.1826L225.908 16.4513L227.005 17.1826C269.052 48.9925 324.262 53.7457 353.513 53.7457C362.654 53.7457 368.138 53.38 368.138 53.38L370.332 53.0144V227.786C365.213 288.115 326.456 327.237 294.646 349.907C260.277 374.404 227.005 384.642 226.639 384.642H225.908ZM85.5055 57.0363V227.786C90.6244 286.287 128.65 324.678 159.363 346.616C190.807 368.919 221.155 379.157 225.908 380.62C230.295 379.157 261.008 368.919 292.452 346.616C323.531 324.678 361.557 285.921 366.31 227.42V57.0363C363.751 57.0363 359.363 57.402 353.513 57.402C324.262 57.402 268.687 52.6488 225.908 20.8389C183.129 52.6488 127.553 57.402 98.3026 57.402C92.4525 57.402 88.065 57.402 85.5055 57.0363Z" fill="black" fill-opacity="0.05"/>
<path d="M254.429 72.028C254.429 72.028 254.063 73.8561 252.601 76.0499C250.772 78.9749 248.213 82.9969 247.847 85.5563C247.847 85.5563 264.301 95.0627 265.032 117.732C265.032 117.732 267.226 108.957 277.463 105.3C287.701 101.644 304.154 93.6002 291.357 75.6843C291.357 75.6843 291.723 97.2564 273.442 84.0937C273.442 84.0937 266.129 77.878 254.794 72.3936L254.429 72.028Z" fill="black" fill-opacity="0.05"/>
<path d="M216.766 238.389C216.766 238.389 215.669 127.969 214.938 122.119C214.207 115.903 209.088 115.172 207.625 115.172C206.163 115.172 204.335 116.634 203.238 124.678C203.238 124.678 198.119 125.409 198.484 119.925C198.484 119.925 200.313 112.978 219.691 101.278C238.704 89.5777 248.941 67.2742 247.479 62.1553C247.479 62.1553 237.241 66.1773 238.704 54.8427C238.704 54.8427 239.435 48.2614 247.845 50.8208C255.888 53.3802 251.867 69.4679 250.038 73.1242C248.21 77.1462 235.779 96.159 235.779 111.881C235.779 127.603 235.779 241.314 235.779 241.314C235.779 241.314 229.929 238.389 216.766 238.389Z" fill="black" fill-opacity="0.05"/>
<path d="M213.107 178.792C164.844 168.92 156.434 144.422 156.434 144.422C153.143 193.417 210.182 200.364 210.182 200.364C211.279 200.364 212.376 200.73 213.472 200.73C213.107 193.051 213.107 186.104 213.107 178.792Z" fill="black" fill-opacity="0.05"/>
<path d="M238.701 182.082C238.701 189.395 238.701 197.073 238.701 204.386C295.374 216.452 280.383 238.024 280.383 238.024C337.056 195.976 238.701 182.082 238.701 182.082Z" fill="black" fill-opacity="0.05"/>
<path d="M203.967 159.782C206.892 160.513 209.817 161.244 212.742 161.976C212.742 152.835 212.376 144.06 212.376 136.747C184.588 128.338 166.672 117.003 179.835 93.237C179.835 93.237 195.192 62.5241 236.874 80.44C236.874 80.44 241.261 75.3211 242.724 68.7398C242.724 68.7398 211.279 57.0396 184.223 76.4181C156.801 95.4309 139.616 144.791 203.967 159.782Z" fill="black" fill-opacity="0.05"/>
<path d="M297.568 160.513C280.383 153.201 258.811 148.448 238.701 143.694C238.701 151.373 238.701 159.782 238.701 168.192C288.061 180.623 326.452 194.883 314.752 221.208C314.752 221.208 311.462 232.177 288.427 243.877C288.427 243.877 270.511 252.652 263.929 265.449C263.929 265.449 256.983 241.683 207.257 241.683C157.531 241.683 139.249 287.022 148.024 303.475C159.359 324.316 220.419 332.726 232.485 272.396C227.001 266.912 216.397 264.718 216.397 264.718C216.397 264.718 217.86 269.106 214.569 280.806C207.988 302.744 176.178 332.726 153.143 305.303C153.143 305.303 131.937 273.493 195.191 260.696C214.935 256.674 250.767 266.181 254.423 298.722C254.423 298.722 269.414 259.234 306.708 239.49C344.368 219.746 348.39 182.086 297.568 160.513Z" fill="black" fill-opacity="0.05"/>
<path d="M71.6022 311.88C71.6022 311.88 74.5273 310.417 70.871 304.933C67.2147 299.449 59.5364 282.629 76.3554 272.757C76.3554 272.757 74.5273 277.876 80.743 285.189C86.9587 292.501 92.0776 316.267 71.6022 311.88Z" fill="black" fill-opacity="0.05"/>
<path d="M70.1433 311.149C70.1433 311.149 46.0117 291.771 22.9769 300.546C22.9769 300.546 32.4833 320.29 56.6149 320.656C56.6149 320.656 67.5839 321.021 73.7996 313.709L70.1433 311.149Z" fill="black" fill-opacity="0.05"/>
<path d="M43.4543 282.631C43.4543 282.631 46.3793 282.265 45.2824 276.415C43.8199 270.565 42.723 254.112 59.9077 250.821C59.9077 250.821 56.617 254.843 59.5421 262.887C62.8327 271.296 59.542 292.868 43.4543 282.631Z" fill="black" fill-opacity="0.05"/>
<path d="M41.9893 280.073C41.9893 280.073 26.2672 256.672 4.32935 258.135C4.32935 258.135 6.88876 277.879 28.0953 284.826C28.0953 284.826 37.6018 288.117 44.9144 283.364L41.9893 280.073Z" fill="black" fill-opacity="0.05"/>
<path d="M26.2708 243.142C26.2708 243.142 29.1959 243.874 29.9272 238.389C30.6584 232.905 35.4116 217.548 51.865 220.839C51.865 220.839 47.4774 223.033 47.4774 231.442C47.4774 239.852 36.8741 257.768 26.2708 243.142Z" fill="black" fill-opacity="0.05"/>
<path d="M25.9034 242.045C25.9034 242.045 20.7846 215.719 0.674893 208.772C0.674893 208.772 -4.07831 227.054 11.6438 240.948C11.6438 240.948 18.9564 247.529 27.0003 245.701L25.9034 242.045Z" fill="black" fill-opacity="0.05"/>
<path d="M22.245 200.732C22.245 200.732 24.4388 202.194 26.6326 197.807C29.192 193.419 37.6015 182.084 50.033 189.763C50.033 189.763 45.6454 190.494 43.086 197.075C40.5266 203.657 26.6326 216.088 22.245 200.732Z" fill="black" fill-opacity="0.05"/>
<path d="M22.6149 200.73C22.6149 200.73 28.0993 177.695 14.2054 164.898C14.2054 164.898 3.60209 178.061 11.646 194.88C11.646 194.88 15.3022 202.558 22.2492 204.386L22.6149 200.73Z" fill="black" fill-opacity="0.05"/>
<path d="M45.2772 142.961C35.0395 142.596 24.0707 153.93 30.2864 167.458C30.2864 167.458 47.1054 166.727 45.2772 142.961Z" fill="black" fill-opacity="0.05"/>
<path d="M130.105 340.034C130.105 340.034 129.739 340.034 129.374 339.668C68.3133 322.849 23.3408 270.564 23.3408 209.138C23.3408 190.857 27.3627 173.306 34.3097 157.218C36.8691 151.003 36.8691 150.637 33.9441 156.853C25.5346 173.672 21.147 192.685 21.147 212.429C21.147 274.952 67.2165 327.968 129.739 343.69C130.105 343.69 130.471 344.056 130.471 344.056L130.105 340.034Z" fill="black" fill-opacity="0.05"/>
<path d="M380.563 311.884C380.563 311.884 377.638 310.422 381.294 304.937C384.95 299.453 392.629 282.634 375.81 272.762C375.81 272.762 377.638 277.881 371.422 285.193C364.841 292.506 360.087 316.272 380.563 311.884Z" fill="black" fill-opacity="0.05"/>
<path d="M382.029 310.783C382.029 310.783 406.161 291.405 429.196 300.18C429.196 300.18 419.689 319.924 395.558 320.289C395.558 320.289 384.589 320.655 378.373 313.343L382.029 310.783Z" fill="black" fill-opacity="0.05"/>
<path d="M408.716 282.631C408.716 282.631 405.791 282.265 406.888 276.415C408.35 270.565 409.447 254.112 392.263 250.821C392.263 250.821 395.553 254.843 392.628 262.887C389.338 271.296 392.628 292.868 408.716 282.631Z" fill="black" fill-opacity="0.05"/>
<path d="M322.064 340.034C322.064 340.034 322.43 340.034 322.795 339.668C383.856 322.849 428.828 270.564 428.828 209.138C428.828 190.857 424.806 173.306 417.859 157.218C415.3 151.003 415.3 150.637 418.225 156.853C426.635 173.672 431.022 192.685 431.022 212.429C431.022 274.952 384.953 327.968 322.43 343.69C322.064 343.69 321.698 344.056 321.698 344.056L322.064 340.034Z" fill="black" fill-opacity="0.05"/>
</svg>
